<svg width="25" height="24" viewBox="0 0 25 24" fill="none" xmlns="http://www.w3.org/2000/svg">
<g id="nrk:radio-active">
<g id="Group">
<path id="Vector" d="M16.5 12C16.5 13.0609 16.0786 14.0783 15.3284 14.8284C14.5783 15.5786 13.5609 16 12.5 16C11.4391 16 10.4217 15.5786 9.67157 14.8284C8.92143 14.0783 8.5 13.0609 8.5 12C8.5 10.9391 8.92143 9.92172 9.67157 9.17157C10.4217 8.42143 11.4391 8 12.5 8C13.5609 8 14.5783 8.42143 15.3284 9.17157C16.0786 9.92172 16.5 10.9391 16.5 12Z" fill="#9FDD79"/>
<path id="Vector_2" fill-rule="evenodd" clip-rule="evenodd" d="M12.5 19C13.4193 19 14.3295 18.8189 15.1788 18.4672C16.0281 18.1154 16.7997 17.5998 17.4497 16.9497C18.0998 16.2997 18.6154 15.5281 18.9672 14.6788C19.3189 13.8295 19.5 12.9193 19.5 12C19.5 11.0807 19.3189 10.1705 18.9672 9.32122C18.6154 8.47194 18.0998 7.70026 17.4497 7.05025C16.7997 6.40024 16.0281 5.88463 15.1788 5.53284C14.3295 5.18106 13.4193 5 12.5 5C10.6435 5 8.86301 5.7375 7.55025 7.05025C6.2375 8.36301 5.5 10.1435 5.5 12C5.5 13.8565 6.2375 15.637 7.55025 16.9497C8.86301 18.2625 10.6435 19 12.5 19ZM12.5 21C13.6819 21 14.8522 20.7672 15.9442 20.3149C17.0361 19.8626 18.0282 19.1997 18.864 18.364C19.6997 17.5282 20.3626 16.5361 20.8149 15.4442C21.2672 14.3522 21.5 13.1819 21.5 12C21.5 10.8181 21.2672 9.64778 20.8149 8.55585C20.3626 7.46392 19.6997 6.47177 18.864 5.63604C18.0282 4.80031 17.0361 4.13738 15.9442 3.68508C14.8522 3.23279 13.6819 3 12.5 3C10.1131 3 7.82387 3.94821 6.13604 5.63604C4.44821 7.32387 3.5 9.61305 3.5 12C3.5 14.3869 4.44821 16.6761 6.13604 18.364C7.82387 20.0518 10.1131 21 12.5 21Z" fill="#9FDD79"/>
</g>
</g>
</svg>
