<svg width="24" height="24" viewBox="0 0 24 24" fill="none" xmlns="http://www.w3.org/2000/svg">
<g id="et:clock" clip-path="url(#clip0_3456_994)">
<g id="Group">
<path id="Vector" d="M12 24C18.6165 24 24 18.6165 24 12C24 5.3835 18.6165 0 12 0C5.3835 0 0 5.3835 0 12C0 18.6165 5.3835 24 12 24ZM12 0.75C18.2033 0.75 23.25 5.79675 23.25 12C23.25 18.2033 18.2033 23.25 12 23.25C5.79675 23.25 0.75 18.2033 0.75 12C0.75 5.79675 5.79675 0.75 12 0.75Z" fill="black"/>
<path id="Vector_2" d="M15.0458 16.326C15.0806 16.3609 15.122 16.3886 15.1675 16.4075C15.2131 16.4264 15.2619 16.4362 15.3113 16.4362C15.3606 16.4362 15.4094 16.4264 15.455 16.4075C15.5005 16.3886 15.5419 16.3609 15.5767 16.326C15.6471 16.2557 15.6865 16.1603 15.6865 16.0609C15.6865 15.9614 15.6471 15.8661 15.5767 15.7958L12 12.2198V6.98926C12 6.8898 11.9605 6.79442 11.8902 6.72409C11.8198 6.65377 11.7245 6.61426 11.625 6.61426C11.5255 6.61426 11.4302 6.65377 11.3598 6.72409C11.2895 6.79442 11.25 6.8898 11.25 6.98926V12.375C11.25 12.4748 11.2897 12.57 11.3595 12.6405L15.0458 16.326Z" fill="black"/>
<path id="Vector_3" d="M3 12.75C3.41421 12.75 3.75 12.4142 3.75 12C3.75 11.5858 3.41421 11.25 3 11.25C2.58579 11.25 2.25 11.5858 2.25 12C2.25 12.4142 2.58579 12.75 3 12.75Z" fill="black"/>
<path id="Vector_4" d="M21 12.75C21.4142 12.75 21.75 12.4142 21.75 12C21.75 11.5858 21.4142 11.25 21 11.25C20.5858 11.25 20.25 11.5858 20.25 12C20.25 12.4142 20.5858 12.75 21 12.75Z" fill="black"/>
<path id="Vector_5" d="M12 3.75C12.4142 3.75 12.75 3.41421 12.75 3C12.75 2.58579 12.4142 2.25 12 2.25C11.5858 2.25 11.25 2.58579 11.25 3C11.25 3.41421 11.5858 3.75 12 3.75Z" fill="black"/>
<path id="Vector_6" d="M12 21.75C12.4142 21.75 12.75 21.4142 12.75 21C12.75 20.5858 12.4142 20.25 12 20.25C11.5858 20.25 11.25 20.5858 11.25 21C11.25 21.4142 11.5858 21.75 12 21.75Z" fill="black"/>
<path id="Vector_7" d="M6 6.75C6.41421 6.75 6.75 6.41421 6.75 6C6.75 5.58579 6.41421 5.25 6 5.25C5.58579 5.25 5.25 5.58579 5.25 6C5.25 6.41421 5.58579 6.75 6 6.75Z" fill="black"/>
<path id="Vector_8" d="M18 18.75C18.4142 18.75 18.75 18.4142 18.75 18C18.75 17.5858 18.4142 17.25 18 17.25C17.5858 17.25 17.25 17.5858 17.25 18C17.25 18.4142 17.5858 18.75 18 18.75Z" fill="black"/>
<path id="Vector_9" d="M18.75 6.75C19.1642 6.75 19.5 6.41421 19.5 6C19.5 5.58579 19.1642 5.25 18.75 5.25C18.3358 5.25 18 5.58579 18 6C18 6.41421 18.3358 6.75 18.75 6.75Z" fill="black"/>
<path id="Vector_10" d="M6 18.75C6.41421 18.75 6.75 18.4142 6.75 18C6.75 17.5858 6.41421 17.25 6 17.25C5.58579 17.25 5.25 17.5858 5.25 18C5.25 18.4142 5.58579 18.75 6 18.75Z" fill="black"/>
</g>
</g>
<defs>
<clipPath id="clip0_3456_994">
<rect width="24" height="24" fill="white"/>
</clipPath>
</defs>
</svg>
