<svg width="12" height="6" viewBox="0 0 12 6" fill="none" xmlns="http://www.w3.org/2000/svg">
<g id="formkit:up" clip-path="url(#clip0_3442_6332)">
<path id="Vector" d="M2.62519 0.632568C2.67437 0.631969 2.72313 0.641668 2.76834 0.661043C2.81355 0.680418 2.85421 0.70904 2.88769 0.745068L6.00019 3.85007L9.11269 0.745068C9.26269 0.595068 9.49519 0.595068 9.64519 0.745068C9.79519 0.895068 9.79519 1.12757 9.64519 1.27757L6.26269 4.64507C6.11269 4.79507 5.88019 4.79507 5.73019 4.64507L2.35519 1.27007C2.20519 1.12007 2.20519 0.887568 2.35519 0.737568C2.43019 0.662568 2.52769 0.625068 2.61769 0.625068L2.62519 0.632568Z" fill="black"/>
</g>
<defs>
<clipPath id="clip0_3442_6332">
<rect width="12" height="5.25" fill="white" transform="translate(0 0.25)"/>
</clipPath>
</defs>
</svg>
