<svg width="25" height="25" viewBox="0 0 25 25" fill="none" xmlns="http://www.w3.org/2000/svg">
<g id="Frame" clip-path="url(#clip0_3971_148)">
<path id="Vector" d="M12.7593 5C7.75928 5 3.48928 8.11 1.75928 12.5C3.48928 16.89 7.75928 20 12.7593 20C17.7593 20 22.0293 16.89 23.7593 12.5C22.0293 8.11 17.7593 5 12.7593 5ZM12.7593 17.5C9.99928 17.5 7.75928 15.26 7.75928 12.5C7.75928 9.74 9.99928 7.5 12.7593 7.5C15.5193 7.5 17.7593 9.74 17.7593 12.5C17.7593 15.26 15.5193 17.5 12.7593 17.5ZM12.7593 9.5C11.0993 9.5 9.75928 10.84 9.75928 12.5C9.75928 14.16 11.0993 15.5 12.7593 15.5C14.4193 15.5 15.7593 14.16 15.7593 12.5C15.7593 10.84 14.4193 9.5 12.7593 9.5Z" fill="#007EF2"/>
</g>
<defs>
<clipPath id="clip0_3971_148">
<rect width="24" height="24" fill="white" transform="translate(0.759277 0.5)"/>
</clipPath>
</defs>
</svg>
