<svg width="24" height="25" viewBox="0 0 24 25" fill="none" xmlns="http://www.w3.org/2000/svg">
<g id="clarity:note-edit-solid" clip-path="url(#clip0_4799_1951)">
<path id="Vector" d="M21.9998 4.76596L19.5332 2.2993C19.3211 2.09715 19.0394 1.98438 18.7465 1.98438C18.4536 1.98437 18.1719 2.09715 17.9598 2.2993L15.7665 4.4993H3.99984C3.64622 4.4993 3.30708 4.63977 3.05703 4.88982C2.80698 5.13987 2.6665 5.47901 2.6665 5.83263V20.4993C2.6665 20.8529 2.80698 21.1921 3.05703 21.4421C3.30708 21.6922 3.64622 21.8326 3.99984 21.8326H18.6665C19.0201 21.8326 19.3593 21.6922 19.6093 21.4421C19.8594 21.1921 19.9998 20.8529 19.9998 20.4993V8.3393L21.9998 6.3393C22.2083 6.13055 22.3253 5.84762 22.3253 5.55263C22.3253 5.25764 22.2083 4.97471 21.9998 4.76596ZM12.5532 13.9193L9.75984 14.5393L10.4265 11.7726L16.7932 5.39263L18.9465 7.54596L12.5532 13.9193ZM19.6665 6.78596L17.5132 4.63263L18.7465 3.3993L20.8998 5.55263L19.6665 6.78596Z" fill="#007EF2"/>
</g>
<defs>
<clipPath id="clip0_4799_1951">
<rect width="24" height="24" fill="white" transform="translate(0 0.5)"/>
</clipPath>
</defs>
</svg>
