<svg width="18" height="18" viewBox="0 0 18 18" fill="none" xmlns="http://www.w3.org/2000/svg">
<g id="Eye / undefined / Glyph: undefined">
<rect x="0.5" y="0.5" width="17" height="17" rx="2.5" stroke="#7AA262"/>
<path id="Vector" d="M9.00078 6.75346C10.6576 6.75346 12.0008 8.09662 12.0008 9.75345C12.0008 11.4103 10.6576 12.7535 9.00078 12.7535C7.3439 12.7535 6.00075 11.4103 6.00075 9.75345C6.00075 8.09662 7.3439 6.75346 9.00078 6.75346ZM9.00078 7.87845C7.96525 7.87845 7.12576 8.71792 7.12576 9.75345C7.12576 10.789 7.96525 11.6284 9.00078 11.6284C10.0363 11.6284 10.8758 10.789 10.8758 9.75345C10.8758 8.71792 10.0363 7.87845 9.00078 7.87845ZM9.00078 4.125C12.4609 4.125 15.4479 6.48751 16.2766 9.7983C16.3521 10.0996 16.1689 10.4051 15.8676 10.4806C15.5661 10.556 15.2607 10.3729 15.1853 10.0715C14.4811 7.25847 11.9418 5.25 9.00078 5.25C6.05846 5.25 3.51833 7.2602 2.8154 10.0749C2.74013 10.3762 2.43477 10.5596 2.13337 10.4843C1.83197 10.409 1.64865 10.1037 1.72392 9.80228C2.55124 6.48954 5.53912 4.125 9.00078 4.125Z" fill="#7AA262"/>
</g>
</svg>
