<svg width="67" height="67" viewBox="0 0 67 67" fill="none" xmlns="http://www.w3.org/2000/svg">
<g id="Frame">
<path id="Vector" d="M30.1526 39.4022L42.9547 24.9977C42.9549 24.9975 42.955 24.9973 42.9552 24.9972C43.3592 24.5441 43.9265 24.2698 44.5326 24.2346C45.1388 24.1994 45.7343 24.4062 46.1881 24.8096C46.6418 25.2134 46.9167 25.7807 46.9524 26.387C46.988 26.9933 46.7816 27.589 46.3783 28.0432L31.4905 44.793L31.4905 44.793C31.2755 45.035 31.0117 45.2286 30.7164 45.3612C30.4212 45.4939 30.1011 45.5624 29.7775 45.5624C29.4538 45.5624 29.1338 45.4939 28.8385 45.3612C28.5433 45.2286 28.2795 45.035 28.0645 44.793L20.6276 36.4245C20.2508 35.9681 20.0652 35.3835 20.1097 34.7931C20.1544 34.2001 20.4279 33.6478 20.8724 33.2527C21.3168 32.8576 21.8974 32.6508 22.4916 32.6759C23.0831 32.7009 23.6419 32.9538 24.051 33.3815L29.4052 39.4023L29.779 39.8226L30.1526 39.4022ZM33.5002 10.6673C27.4444 10.6673 21.6366 13.073 17.3546 17.355C13.0725 21.6371 10.6668 27.4449 10.6668 33.5006C10.6668 39.5564 13.0725 45.3642 17.3546 49.6463C21.6366 53.9283 27.4444 56.334 33.5002 56.334C39.5559 56.334 45.3637 53.9283 49.6458 49.6463C53.9278 45.3642 56.3335 39.5564 56.3335 33.5006C56.3335 27.4449 53.9278 21.6371 49.6458 17.355C45.3637 13.073 39.5559 10.6673 33.5002 10.6673ZM6.0835 33.5006C6.0835 18.3584 18.3579 6.08398 33.5002 6.08398C48.6424 6.08398 60.9168 18.3584 60.9168 33.5006C60.9168 48.6429 48.6424 60.9173 33.5002 60.9173C18.3579 60.9173 6.0835 48.6429 6.0835 33.5006Z" fill="#7AA262" stroke="#F5F5DC"/>
</g>
</svg>
