<svg width="21" height="21" viewBox="0 0 21 21" fill="none" xmlns="http://www.w3.org/2000/svg">
<g id="clarity:search-line" clip-path="url(#clip0_4050_5575)">
<path id="Vector" d="M9.85357 3.3049C11.057 3.30381 12.2337 3.65965 13.2348 4.32743C14.2359 4.99521 15.0165 5.94491 15.4778 7.0564C15.9391 8.16788 16.0603 9.39121 15.8262 10.5716C15.5921 11.752 15.0132 12.8365 14.1627 13.6878C13.3121 14.5392 12.2282 15.1191 11.048 15.3543C9.86777 15.5895 8.64433 15.4693 7.53242 15.009C6.42052 14.5488 5.4701 13.7691 4.80141 12.7685C4.13272 11.768 3.7758 10.5916 3.7758 9.38824C3.78309 7.77805 4.42559 6.2358 5.56366 5.09669C6.70173 3.95758 8.24339 3.31367 9.85357 3.3049ZM9.85357 2.16602C8.42515 2.16602 7.02881 2.58959 5.84112 3.38318C4.65343 4.17677 3.72774 5.30472 3.18111 6.62441C2.63448 7.9441 2.49145 9.39625 2.77012 10.7972C3.04879 12.1982 3.73664 13.4851 4.74669 14.4951C5.75674 15.5052 7.04361 16.193 8.44459 16.4717C9.84556 16.7504 11.2977 16.6073 12.6174 16.0607C13.9371 15.5141 15.065 14.5884 15.8586 13.4007C16.6522 12.213 17.0758 10.8167 17.0758 9.38824C17.0758 7.47279 16.3149 5.63579 14.9605 4.28136C13.606 2.92693 11.769 2.16602 9.85357 2.16602Z" fill="black"/>
<path id="Vector_2" d="M20.2256 18.9953L16.1312 14.873L15.3423 15.6564L19.4367 19.7786C19.4882 19.8304 19.5493 19.8716 19.6166 19.8997C19.684 19.9279 19.7562 19.9425 19.8292 19.9428C19.9022 19.9431 19.9745 19.9289 20.0421 19.9012C20.1096 19.8735 20.171 19.8328 20.2228 19.7814C20.2746 19.7299 20.3158 19.6688 20.344 19.6015C20.3721 19.5341 20.3868 19.4619 20.387 19.3889C20.3873 19.3159 20.3732 19.2436 20.3455 19.176C20.3178 19.1085 20.2771 19.0471 20.2256 18.9953Z" fill="black"/>
</g>
<defs>
<clipPath id="clip0_4050_5575">
<rect width="20" height="20" fill="white" transform="translate(0.78125 0.5)"/>
</clipPath>
</defs>
</svg>
