<svg width="28" height="28" viewBox="0 0 28 28" fill="none" xmlns="http://www.w3.org/2000/svg">
<g id="f7:status">
<path id="Vector" d="M25.4617 10.501L25.4847 10.5665L25.5702 10.8495L25.6417 11.1035L25.6722 11.2195L25.7222 11.4295C26.3708 14.3558 25.8974 17.419 24.3957 20.013C22.8974 22.6151 20.4755 24.5587 17.6107 25.458L17.4087 25.518L17.1607 25.582L16.8022 25.667C16.6756 25.6958 16.5444 25.6983 16.4168 25.6741C16.2892 25.65 16.1679 25.5998 16.0605 25.5267C15.9532 25.4536 15.8621 25.3592 15.7928 25.2493C15.7236 25.1394 15.6778 25.0164 15.6582 24.888C15.618 24.6245 15.6782 24.3555 15.827 24.1343C15.9757 23.9131 16.202 23.7558 16.4612 23.6935L16.7497 23.621C16.9297 23.5737 17.0846 23.5282 17.2142 23.4845C19.5149 22.7077 21.4527 21.1177 22.6637 19.013C23.8819 16.9099 24.2895 14.4341 23.8097 12.0515L23.7752 11.895L23.7292 11.7125L23.6717 11.5035L23.6027 11.2685C23.5255 11.0122 23.5473 10.7361 23.664 10.4952C23.7807 10.2542 23.9837 10.0658 24.2327 9.96751C24.3485 9.92179 24.472 9.89932 24.5965 9.9014C24.7209 9.90347 24.8436 9.93003 24.9578 9.97958C25.0719 10.0291 25.1752 10.1007 25.2616 10.1901C25.3481 10.2796 25.4161 10.3853 25.4617 10.501ZM3.69273 9.96001C3.7144 9.96668 3.73573 9.97401 3.75673 9.98201C4.00521 10.0789 4.20824 10.2655 4.32557 10.505C4.44291 10.7445 4.46598 11.0193 4.39023 11.275C4.30023 11.578 4.23523 11.8302 4.19523 12.0315C3.7176 14.4122 4.12565 16.8854 5.34273 18.9865C6.55485 21.0931 8.49505 22.684 10.7982 23.46L10.9512 23.5085L11.0382 23.5335L11.2332 23.5865L11.5802 23.672C11.8409 23.7333 12.069 23.8903 12.2194 24.112C12.3697 24.3336 12.4312 24.6036 12.3917 24.8685C12.3547 25.1169 12.2205 25.3403 12.0188 25.4898C11.817 25.6393 11.5641 25.7025 11.3157 25.6655L11.2467 25.653L10.9587 25.5855L10.7037 25.5205L10.4807 25.458L10.3807 25.428C7.52186 24.5262 5.10565 22.5841 3.61023 19.986C2.10578 17.3874 1.63336 14.3182 2.28673 11.3875L2.32523 11.2275L2.37523 11.04L2.47223 10.7075L2.51023 10.5825C2.54695 10.464 2.60667 10.3538 2.68598 10.2583C2.76529 10.1628 2.86262 10.0839 2.97243 10.0261C3.08224 9.96821 3.20237 9.93256 3.32596 9.92114C3.44955 9.90972 3.57418 9.92326 3.69273 9.96001ZM14.0257 6.00001C18.4442 6.00001 22.0257 9.58151 22.0257 14C22.0257 18.4185 18.4442 22 14.0257 22C9.60723 22 6.02573 18.4185 6.02573 14C6.02573 9.58151 9.60773 6.00001 14.0257 6.00001ZM14.0257 8.00001C10.7122 8.00001 8.02573 10.6865 8.02573 14C8.02573 17.3135 10.7122 20 14.0257 20C17.3397 20 20.0257 17.3135 20.0257 14C20.0257 10.6865 17.3397 8.00001 14.0257 8.00001ZM14.0257 2.00001C17.0284 1.99633 19.9228 3.12179 22.1342 5.15301L22.2537 5.26651L22.3912 5.40351L22.5462 5.56451L22.7192 5.74901C22.8075 5.84425 22.8752 5.95665 22.9181 6.07921C22.9609 6.20176 22.9781 6.33184 22.9685 6.46133C22.9589 6.59082 22.9227 6.71693 22.8622 6.83181C22.8016 6.94668 22.7181 7.04785 22.6167 7.12901C22.4086 7.29576 22.1454 7.37823 21.8794 7.36008C21.6133 7.34192 21.3638 7.22448 21.1802 7.03101C21.0716 6.91601 20.9707 6.81318 20.8777 6.72251L20.7027 6.55551L20.6227 6.48401C18.7998 4.87991 16.4539 3.9966 14.0257 4.00001C11.5953 3.99649 9.24735 4.88132 7.42373 6.48801L7.36673 6.53901L7.24023 6.65901L7.09673 6.80151L6.84923 7.05901C6.46923 7.46351 5.84223 7.50901 5.40773 7.16401C5.31029 7.08665 5.22904 6.99085 5.16864 6.88209C5.10823 6.77332 5.06985 6.65371 5.05569 6.53011C5.04153 6.4065 5.05186 6.28132 5.0861 6.1617C5.12034 6.04209 5.17781 5.9304 5.25523 5.83301L5.30023 5.78001L5.50273 5.56451L5.68673 5.37551C5.77406 5.28784 5.85473 5.21034 5.92873 5.14301C8.13864 3.11823 11.028 1.99661 14.0252 2.00001" fill="#8BAE76"/>
</g>
</svg>
