<svg width="24" height="24" viewBox="0 0 24 24" fill="none" xmlns="http://www.w3.org/2000/svg">
<g id="flat-color-icons:in-transit">
<path id="Vector" d="M22 18H15V8C15 7.45 15.45 7 16 7H20C20.3 7 20.6 7.15 20.8 7.4L23.8 11.25C23.95 11.45 24 11.65 24 11.85V16C24 17.1 23.1 18 22 18Z" fill="#FFC107"/>
<g id="Group">
<path id="Vector_2" d="M4 18H15V6.5C15 5.4 14.1 4.5 13 4.5H2V16C2 17.1 2.9 18 4 18Z" fill="#9575CD"/>
<path id="Vector_3" d="M0 4.5H5V5.5H0V4.5ZM0 7H5V8H0V7ZM0 9.5H5V10.5H0V9.5ZM0 12H5V13H0V12Z" fill="#9575CD"/>
</g>
<path id="Vector_4" d="M2 5.5H10V6.5H2V5.5ZM2 8H8V9H2V8ZM2 10.5H6V11.5H2V10.5ZM2 13H4V14H2V13Z" fill="#7E57C2"/>
<g id="Group_2">
<path id="Vector_5" d="M19.5 20.5C20.8807 20.5 22 19.3807 22 18C22 16.6193 20.8807 15.5 19.5 15.5C18.1193 15.5 17 16.6193 17 18C17 19.3807 18.1193 20.5 19.5 20.5Z" fill="#37474F"/>
<path id="Vector_6" d="M8 20.5C9.38071 20.5 10.5 19.3807 10.5 18C10.5 16.6193 9.38071 15.5 8 15.5C6.61929 15.5 5.5 16.6193 5.5 18C5.5 19.3807 6.61929 20.5 8 20.5Z" fill="#37474F"/>
</g>
<g id="Group_3">
<path id="Vector_7" d="M19.5 19.25C20.1904 19.25 20.75 18.6904 20.75 18C20.75 17.3096 20.1904 16.75 19.5 16.75C18.8096 16.75 18.25 17.3096 18.25 18C18.25 18.6904 18.8096 19.25 19.5 19.25Z" fill="#78909C"/>
<path id="Vector_8" d="M8 19.25C8.69036 19.25 9.25 18.6904 9.25 18C9.25 17.3096 8.69036 16.75 8 16.75C7.30964 16.75 6.75 17.3096 6.75 18C6.75 18.6904 7.30964 19.25 8 19.25Z" fill="#78909C"/>
</g>
<path id="Vector_9" d="M22 13H20.2C20.05 13 19.95 12.95 19.85 12.85L19.15 12.15C19.05 12.05 18.95 12 18.8 12H17C16.7 12 16.5 11.8 16.5 11.5V8.5C16.5 8.2 16.7 8 17 8H19.75C19.9 8 20.05 8.05 20.15 8.2L22.4 10.9C22.45 11 22.5 11.1 22.5 11.2V12.5C22.5 12.8 22.3 13 22 13Z" fill="#455A64"/>
</g>
</svg>
