<svg width="24" height="25" viewBox="0 0 24 25" fill="none" xmlns="http://www.w3.org/2000/svg">
<path id="Vector" d="M8 8.75H8.25V8.5V3.16667V2.91667H8H2.66667H2.41667V3.16667V8.5V8.75H2.66667H8ZM21.3333 22.0833H21.5833V21.8333V16.5V16.25H21.3333H16H15.75V16.5V21.8333V22.0833H16H21.3333ZM1.33333 0.75H9.33333C9.62065 0.75 9.8962 0.864136 10.0994 1.0673C10.3025 1.27047 10.4167 1.54602 10.4167 1.83333V9.83333C10.4167 10.1207 10.3025 10.3962 10.0994 10.5994C9.8962 10.8025 9.62065 10.9167 9.33333 10.9167H1.33333C1.04602 10.9167 0.770466 10.8025 0.567301 10.5994C0.364136 10.3962 0.25 10.1207 0.25 9.83333V1.83333C0.25 1.54602 0.364137 1.27047 0.567301 1.0673C0.770465 0.864137 1.04602 0.75 1.33333 0.75ZM14.6667 14.0833H22.6667C22.954 14.0833 23.2295 14.1975 23.4327 14.4006C23.6359 14.6038 23.75 14.8793 23.75 15.1667V23.1667C23.75 23.454 23.6359 23.7295 23.4327 23.9327C23.2295 24.1359 22.954 24.25 22.6667 24.25H14.6667C14.3793 24.25 14.1038 24.1359 13.9006 23.9327C13.6975 23.7295 13.5833 23.454 13.5833 23.1667V15.1667C13.5833 14.8793 13.6975 14.6038 13.9006 14.4006C14.1038 14.1975 14.3793 14.0833 14.6667 14.0833ZM13.5833 5.83333C13.5833 3.03007 15.8634 0.75 18.6667 0.75C21.4699 0.75 23.75 3.03007 23.75 5.83333C23.75 8.6366 21.4699 10.9167 18.6667 10.9167C15.8634 10.9167 13.5833 8.6366 13.5833 5.83333ZM15.75 5.83333C15.75 7.44207 17.0579 8.75 18.6667 8.75C20.2754 8.75 21.5833 7.44207 21.5833 5.83333C21.5833 4.2246 20.2754 2.91667 18.6667 2.91667C17.0579 2.91667 15.75 4.2246 15.75 5.83333ZM0.25 19.1667C0.25 16.3634 2.53007 14.0833 5.33333 14.0833C8.1366 14.0833 10.4167 16.3634 10.4167 19.1667C10.4167 21.9699 8.1366 24.25 5.33333 24.25C2.53007 24.25 0.25 21.9699 0.25 19.1667ZM2.41667 19.1667C2.41667 20.7754 3.7246 22.0833 5.33333 22.0833C6.94207 22.0833 8.25 20.7754 8.25 19.1667C8.25 17.5579 6.94207 16.25 5.33333 16.25C3.7246 16.25 2.41667 17.5579 2.41667 19.1667Z" fill="#5C5C5C" stroke="white" stroke-width="0.5"/>
</svg>
